<?xml version="1.0" encoding="UTF-8" standalone="no"?>
<!-- Generator: Adobe Illustrator 25.2.0, SVG Export Plug-In . SVG Version: 6.00 Build 0)  -->

<svg
   version="1.1"
   id="Calque_2"
   x="0px"
   y="0px"
   viewBox="0 0 130.2486 68"
   xml:space="preserve"
   sodipodi:docname="logo-rf-conseiller-numerique.svg"
   width="130.2486"
   height="68"
   inkscape:version="1.1.1 (eb90963e84, 2021-10-02)"
   xmlns:inkscape="http://www.inkscape.org/namespaces/inkscape"
   xmlns:sodipodi="http://sodipodi.sourceforge.net/DTD/sodipodi-0.dtd"
   xmlns="http://www.w3.org/2000/svg"
   xmlns:svg="http://www.w3.org/2000/svg"><defs
   id="defs159" /><sodipodi:namedview
   id="namedview157"
   pagecolor="#ffffff"
   bordercolor="#666666"
   borderopacity="1.0"
   inkscape:pageshadow="2"
   inkscape:pageopacity="0.0"
   inkscape:pagecheckerboard="0"
   showgrid="false"
   fit-margin-top="0"
   fit-margin-left="0"
   fit-margin-right="0"
   fit-margin-bottom="0"
   inkscape:zoom="0.95313853"
   inkscape:cx="-48.786193"
   inkscape:cy="197.76769"
   inkscape:window-width="1536"
   inkscape:window-height="922"
   inkscape:window-x="365"
   inkscape:window-y="37"
   inkscape:window-maximized="0"
   inkscape:current-layer="g154" />
<style
   type="text/css"
   id="style2">
	.st0{fill:#FFFFFF;}
  .st1{fill:#000091;}
  .st2{fill:#E1000F;}
  .st3{fill:#9D9D9C;}
</style>
  
  <g
   id="g154"
   transform="translate(-281.60001)">
	<rect
   x="281.60001"
   y="0"
   width="0.22242989"
   height="68"
   id="rect6"
   style="stroke-width:0.317758" />
    
    <g
   id="g152"
   transform="matrix(0.31775701,0,0,0.31775701,192.11963,0)">
		<g
   id="g150">
			<polygon
   class="st2"
   points="369.1,214 413.4,137.5 413.4,83.5 366.6,56.4 319.8,83.5 319.8,137.5 364.1,214 "
   id="polygon70" />
      <polygon
   class="st0"
   points="397.7,92.5 366.6,74.5 335.4,92.5 335.4,128.5 366.6,146.4 397.7,128.5 397.7,118.2 380,118.2 380,102.8 397.7,102.8 "
   id="polygon72" />
      <polygon
   class="st1"
   points="366.6,95 353.2,102.8 353.2,118.2 366.6,125.9 380,118.2 380,102.8 "
   id="polygon74" />
      <g
   id="g96">
				<path
   d="m 469,76.6 4.5,3.5 c -2.6,3.5 -6.8,5.8 -12,5.8 -9,0 -15.1,-6.9 -15.1,-15 0,-8.1 6.1,-15 15.1,-15 5.2,0 9.4,2.3 12,5.8 l -4.5,3.5 c -1.6,-2.3 -4.2,-3.9 -7.4,-3.9 -5.4,0 -9.2,4.2 -9.2,9.6 0,5.4 3.8,9.6 9.2,9.6 3.2,0 5.8,-1.6 7.4,-3.9 z"
   id="path76" />
        <path
   d="m 505.8,70.9 c 0,8.1 -6.1,15 -15.1,15 -9,0 -15.1,-6.9 -15.1,-15 0,-8.1 6.1,-15 15.1,-15 9,-0.1 15.1,6.9 15.1,15 z m -5.9,0 c 0,-5.4 -3.8,-9.6 -9.1,-9.6 -5.4,0 -9.2,4.2 -9.2,9.6 0,5.4 3.8,9.6 9.2,9.6 5.3,0 9.1,-4.2 9.1,-9.6 z"
   id="path78" />
        <path
   d="m 510.8,56.7 h 7.4 L 530.9,77 V 56.7 h 5.8 v 28.4 h -7.4 L 516.6,64.7 v 20.4 h -5.8 z"
   id="path80" />
        <path
   d="m 545.8,77.3 c 1.7,2.2 4,3.5 6.3,3.5 2.3,0 3.7,-1.2 3.7,-3.3 0,-5.1 -13,-3.9 -13,-13.4 0,-4.5 3.7,-8.2 9.1,-8.2 4.3,0 7.6,1.9 10,4.8 l -4.2,3.8 C 556,62.3 554.2,61 552,61 c -2,0 -3.3,1.3 -3.3,3 0,5.1 13,3.9 13,13.5 -0.1,5.3 -4.2,8.5 -9.4,8.5 -4.8,0 -8,-1.7 -10.6,-4.8 z"
   id="path82" />
        <path
   d="m 567.2,56.7 h 16.6 v 4.9 H 573 v 6.6 h 9.2 v 4.9 H 573 v 7.1 h 10.8 v 4.9 h -16.6 z"
   id="path84" />
        <path
   d="m 589.9,56.7 h 5.8 v 28.4 h -5.8 z"
   id="path86" />
        <path
   d="m 603.2,56.7 h 5.8 v 23.2 h 10.8 v 5.2 h -16.6 z"
   id="path88" />
        <path
   d="m 624.3,56.7 h 5.8 v 23.2 h 10.8 v 5.2 h -16.6 z"
   id="path90" />
        <path
   d="m 645.5,56.7 h 16.6 v 4.9 h -10.8 v 6.6 h 9.2 v 4.9 h -9.2 v 7.1 h 10.8 v 4.9 h -16.6 z"
   id="path92" />
        <path
   d="m 668.3,56.7 h 8.7 c 6.3,0 10.1,3.2 10.1,8.5 0,3.4 -1.7,6 -4.5,7.4 l 8.9,12.6 h -6.9 L 677,73.6 h -3 v 11.5 h -5.8 V 56.7 Z m 5.7,4.9 v 7.1 h 3.2 c 2.4,0 3.9,-1.3 3.9,-3.6 0,-2.2 -1.4,-3.5 -3.9,-3.5 z"
   id="path94" />
			</g>
      <g
   id="g116">
				<path
   d="m 447.1,97.7 h 7.4 l 12.7,20.4 V 97.7 h 5.8 v 28.4 h -7.4 l -12.7,-20.4 v 20.4 h -5.8 z"
   id="path98" />
        <path
   d="m 496.9,97.7 h 5.8 V 115 c 0,7.5 -4.4,11.9 -11.5,11.9 -7.1,0 -11.5,-4.5 -11.5,-11.9 V 97.7 h 5.8 v 17.8 c 0,3.8 2.2,6.1 5.8,6.1 3.5,0 5.7,-2.2 5.7,-6.1 V 97.7 Z"
   id="path100" />
        <path
   d="m 509.4,97.7 h 7.3 l 6.9,11.7 6.9,-11.7 h 7.3 v 28.4 H 532 v -20.2 l -6.3,10.5 h -4.1 l -6.3,-10.5 v 20.2 h -5.8 V 97.7 Z"
   id="path102" />
        <path
   d="m 545.1,97.7 h 16.6 v 4.9 h -10.8 v 6.6 h 9.2 v 4.9 h -9.2 v 7.1 h 10.8 v 4.9 h -16.6 z m 5.6,-2.5 4.6,-5.5 h 5.9 l -5.3,5.5 z"
   id="path104" />
        <path
   d="m 567.9,97.7 h 8.7 c 6.3,0 10.1,3.2 10.1,8.5 0,3.4 -1.7,6 -4.6,7.4 l 8.9,12.6 h -6.9 l -7.6,-11.5 h -3 v 11.5 h -5.8 V 97.7 Z m 5.7,4.9 v 7.1 h 3.2 c 2.4,0 3.9,-1.3 3.9,-3.6 0,-2.2 -1.4,-3.5 -3.9,-3.5 z"
   id="path106" />
        <path
   d="m 594.2,97.7 h 5.8 v 28.4 h -5.8 z"
   id="path108" />
        <path
   d="m 637.2,128.1 c 0.6,0 1.4,-0.1 2,-0.3 v 4.9 c -0.9,0.4 -1.7,0.5 -3,0.5 -3.2,0 -6.1,-1.3 -8.9,-3.7 l -3.4,-3 c -1.2,0.3 -2.5,0.5 -3.9,0.5 -9,0 -15.1,-6.9 -15.1,-15 0,-8.1 6.1,-15 15.1,-15 8.9,0 15.1,6.9 15.1,15 0,4.8 -2.1,9.1 -5.6,11.9 l 1.7,1.6 c 2.2,1.9 4.2,2.6 6,2.6 z m -8,-16.2 c 0,-5.4 -3.8,-9.6 -9.1,-9.6 -5.4,0 -9.2,4.2 -9.2,9.6 0,5.4 3.8,9.6 9.2,9.6 5.3,0 9.1,-4.2 9.1,-9.6 z"
   id="path110" />
        <path
   d="m 656.6,97.7 h 5.8 V 115 c 0,7.5 -4.4,11.9 -11.5,11.9 -7.1,0 -11.5,-4.5 -11.5,-11.9 V 97.7 h 5.8 v 17.8 c 0,3.8 2.2,6.1 5.8,6.1 3.5,0 5.7,-2.2 5.7,-6.1 V 97.7 Z"
   id="path112" />
        <path
   d="m 669,97.7 h 16.6 v 4.9 h -10.8 v 6.6 h 9.2 v 4.9 h -9.2 v 7.1 h 10.8 v 4.9 H 669 Z"
   id="path114" />
			</g>
      <g
   id="g130">
				<path
   class="st1"
   d="m 447.3,143.5 h 16.6 v 4.9 H 453 v 6.6 h 9.2 v 4.9 H 453 v 12 h -5.8 v -28.4 z"
   id="path118" />
        <path
   class="st1"
   d="m 467.3,151.4 h 5.2 v 2 c 1.3,-1.4 3.1,-2.4 5.4,-2.4 0.7,0 1.3,0.1 1.8,0.3 v 5.4 c -0.6,-0.2 -1.3,-0.3 -2.3,-0.3 -2.5,0 -4.1,1.4 -4.9,2.6 v 12.8 h -5.2 z"
   id="path120" />
        <path
   class="st1"
   d="m 481.9,166.5 c 0,-3.1 2.4,-5.5 6.8,-6.3 l 6.2,-1.1 v -0.5 c 0,-2.2 -1.6,-3.5 -3.9,-3.5 -2,0 -3.7,0.9 -4.6,2.4 l -3.8,-2.9 c 1.8,-2.5 4.9,-4.1 8.6,-4.1 5.9,0 9,3.5 9,8 v 13.2 H 495 V 170 c -1.3,1.6 -3.7,2.7 -6.1,2.7 -4.2,0 -7,-2.4 -7,-6.2 z m 7.9,2.1 c 2.3,0 4,-1.2 5,-2.9 v -2.8 l -4.8,0.9 c -2.2,0.4 -3,1.3 -3,2.6 0,1.2 1.1,2.2 2.8,2.2 z"
   id="path122" />
        <path
   class="st1"
   d="m 505.1,151.4 h 5.2 v 1.6 c 1.4,-1.4 3.3,-2.4 6.1,-2.4 4.4,0 8,3 8,9.1 v 12.2 H 519 v -12 c 0,-2.7 -1.5,-4.4 -4,-4.4 -2.6,0 -4,1.7 -4.8,3 v 13.4 H 505 v -20.5 z"
   id="path124" />
        <path
   class="st1"
   d="m 543.6,165.4 4.1,3.1 c -1.9,2.5 -4.9,4.1 -8.7,4.1 -7.1,0 -11.3,-5.1 -11.3,-11 0,-6 4.2,-11.1 11.3,-11.1 3.7,0 6.7,1.6 8.7,4.1 l -4.1,3.1 c -1,-1.4 -2.5,-2.4 -4.6,-2.4 -3.4,0 -5.8,2.6 -5.8,6.2 0,3.6 2.5,6.2 5.9,6.2 1.9,0.1 3.5,-0.8 4.5,-2.3 z"
   id="path126" />
        <path
   class="st1"
   d="m 560.6,172.7 c -7.3,0 -11.4,-5.1 -11.4,-11 0,-6.1 3.8,-11.1 10.5,-11.1 5.7,0 9.4,3.8 9.4,9.2 0,1.1 -0.2,2.2 -0.3,2.9 h -14.3 c 0.3,3.4 2.7,5.4 6.2,5.4 2.2,0 4.1,-1 5.2,-2.4 l 3.7,2.9 c -2,2.5 -5.2,4.1 -9,4.1 z m -5.8,-13.9 h 9.2 c -0.1,-2 -1.6,-3.9 -4.3,-3.9 -2.5,0 -4.2,1.2 -4.9,3.9 z"
   id="path128" />
			</g>
      <g
   id="g148">
				<path
   class="st2"
   d="m 449,207 c 1.3,1.6 2.8,2.7 4.7,2.7 1.6,0 2.5,-0.9 2.5,-2.1 0,-3.6 -9.5,-2.1 -9.5,-9.5 0,-3.6 3,-6.3 7.3,-6.3 3.2,0 6,1.5 7.5,3.5 l -3.5,3.1 c -1.1,-1.3 -2.4,-2.4 -4,-2.4 -1.5,0 -2.4,0.7 -2.4,1.9 0,3.5 9.5,2.1 9.5,9.3 -0.1,4.3 -3.5,6.7 -7.4,6.7 -3.7,0 -6.3,-1.5 -8.2,-3.8 z"
   id="path132" />
        <path
   class="st2"
   d="m 475,214 c -7.3,0 -11.4,-5.1 -11.4,-11 0,-6.1 3.8,-11.1 10.5,-11.1 5.7,0 9.4,3.8 9.4,9.2 0,1.1 -0.2,2.2 -0.3,2.9 h -14.3 c 0.3,3.4 2.7,5.4 6.2,5.4 2.2,0 4.1,-1 5.2,-2.4 l 3.7,2.9 c -2,2.5 -5.2,4.1 -9,4.1 z m -5.8,-13.9 h 9.2 c -0.1,-2 -1.6,-3.9 -4.3,-3.9 -2.5,0 -4.2,1.2 -4.9,3.9 z"
   id="path134" />
        <path
   class="st2"
   d="m 487.7,192.7 h 5.2 v 2 c 1.3,-1.4 3.1,-2.4 5.4,-2.4 0.7,0 1.3,0.1 1.8,0.3 v 5.4 c -0.6,-0.2 -1.3,-0.3 -2.3,-0.3 -2.5,0 -4.1,1.4 -4.9,2.6 v 12.8 h -5.2 z"
   id="path136" />
        <path
   class="st2"
   d="m 506.4,192.7 5.3,14.6 5.3,-14.6 h 5.6 l -7.5,20.5 h -6.8 l -7.4,-20.5 z"
   id="path138" />
        <path
   class="st2"
   d="m 524.1,185.7 c 0,-1.8 1.5,-3.4 3.4,-3.4 1.8,0 3.3,1.5 3.3,3.4 0,1.9 -1.5,3.4 -3.3,3.4 -1.8,0 -3.4,-1.5 -3.4,-3.4 z m 0.8,7 h 5.2 v 20.5 h -5.2 z"
   id="path140" />
        <path
   class="st2"
   d="m 549.7,206.7 4.1,3.1 c -1.9,2.5 -4.9,4.1 -8.7,4.1 -7.1,0 -11.3,-5.1 -11.3,-11 0,-6 4.2,-11.1 11.3,-11.1 3.7,0 6.7,1.6 8.7,4.1 l -4.1,3.1 c -1,-1.4 -2.5,-2.4 -4.6,-2.4 -3.4,0 -5.8,2.6 -5.8,6.2 0,3.6 2.5,6.2 5.9,6.2 2,0.1 3.5,-0.9 4.5,-2.3 z"
   id="path142" />
        <path
   class="st2"
   d="m 566.7,214 c -7.3,0 -11.4,-5.1 -11.4,-11 0,-6.1 3.8,-11.1 10.5,-11.1 5.7,0 9.4,3.8 9.4,9.2 0,1.1 -0.2,2.2 -0.3,2.9 h -14.3 c 0.3,3.4 2.7,5.4 6.2,5.4 2.2,0 4.1,-1 5.2,-2.4 l 3.7,2.9 c -2,2.5 -5.1,4.1 -9,4.1 z m -5.8,-13.9 h 9.2 c -0.1,-2 -1.6,-3.9 -4.3,-3.9 -2.5,0 -4.2,1.2 -4.9,3.9 z"
   id="path144" />
        <path
   class="st2"
   d="m 581,207 c 1.3,1.6 2.8,2.7 4.7,2.7 1.6,0 2.5,-0.9 2.5,-2.1 0,-3.6 -9.5,-2.1 -9.5,-9.5 0,-3.6 3,-6.3 7.3,-6.3 3.2,0 6,1.5 7.5,3.5 l -3.5,3.1 c -1.1,-1.3 -2.4,-2.4 -4,-2.4 -1.5,0 -2.4,0.7 -2.4,1.9 0,3.5 9.5,2.1 9.5,9.3 -0.1,4.3 -3.5,6.7 -7.4,6.7 -3.7,0 -6.3,-1.5 -8.2,-3.8 z"
   id="path146" />
			</g>
		</g>
	</g>
</g>
</svg>
