<?xml version="1.0" encoding="utf-8"?>
<!-- Generator: Adobe Illustrator 25.2.0, SVG Export Plug-In . SVG Version: 6.00 Build 0)  -->
<svg version="1.1" id="Calque_2" xmlns="http://www.w3.org/2000/svg" xmlns:xlink="http://www.w3.org/1999/xlink" x="0px" y="0px"
     viewBox="0 0 691.4 214" style="enable-background:new 0 0 691.4 214;" xml:space="preserve">
<style type="text/css">
	.st0{fill:#FFFFFF;}
  .st1{fill:#000091;}
  .st2{fill:#E1000F;}
  .st3{fill:#9D9D9C;}
</style>
  <rect class="st0" width="103.9" height="37.8"/>
  <g>
	<rect x="281.6" y="0" width="0.7" height="214"/>
    <g>
		<g>
			<g>
				<path d="M0.1,56.7h8.7c6.3,0,10.1,3.2,10.1,8.5c0,3.4-1.7,6-4.6,7.4l8.9,12.6h-6.9L8.8,73.6h-3v11.5H0.1V56.7z M5.9,61.6v7.1
					h3.3c2.4,0,3.9-1.3,3.9-3.6c0-2.2-1.4-3.5-3.9-3.5H5.9z"/>
        <path d="M26.9,56.7h16.6v4.9H32.7v6.6h9.2v4.9h-9.2v7.1h10.8v4.9H26.9V56.7z M32.5,54.2l4.6-5.5H43l-5.3,5.5H32.5z"/>
        <path d="M50.2,56.7h9.4c6.3,0,10.1,3.2,10.1,8.5c0,5.2-3.8,8.5-10.1,8.5h-3.6v11.5h-5.8V56.7z M55.9,61.6v7.1h3.9
					c2.4,0,3.9-1.3,3.9-3.6c0-2.2-1.5-3.5-3.9-3.5H55.9z"/>
        <path d="M91.2,56.7h5.8V74c0,7.5-4.4,11.9-11.5,11.9c-7.1,0-11.5-4.5-11.5-11.9V56.7h5.8v17.8c0,3.8,2.2,6.1,5.8,6.1
					c3.5,0,5.7-2.2,5.7-6.1V56.7z"/>
        <path d="M104.1,56.7h8.1c5.9,0,9.5,2.9,9.5,7.7c0,2.3-1.1,4.3-3,5.6c3,1.3,4.7,3.8,4.7,6.7c0,5.2-4,8.4-10.6,8.4h-8.7V56.7z
					 M109.9,61.6v6.2h2.4c2.2,0,3.5-1.1,3.5-3.1c0-1.9-1.3-3.1-3.5-3.1H109.9z M109.9,72.8v7.4h3.3c2.7,0,4.3-1.4,4.3-3.8
					c0-2.4-1.6-3.7-4.3-3.7H109.9z"/>
        <path d="M129.3,56.7h5.8v23.2h10.8v5.2h-16.6V56.7z"/>
        <path d="M150.9,56.7h5.8v28.4h-5.8V56.7z"/>
        <path d="M194.5,87.1c0.6,0,1.4-0.1,2-0.3v4.9c-0.9,0.4-1.7,0.5-3,0.5c-3.2,0-6.1-1.3-8.9-3.7l-3.4-3c-1.2,0.3-2.5,0.5-3.9,0.5
					c-9,0-15.1-6.9-15.1-15c0-8.1,6.1-15,15.1-15c8.9,0,15.1,6.9,15.1,15c0,4.8-2.1,9.1-5.6,11.9l1.7,1.6
					C190.7,86.4,192.6,87.1,194.5,87.1z M186.5,70.9c0-5.4-3.8-9.6-9.1-9.6c-5.4,0-9.2,4.2-9.2,9.6c0,5.4,3.8,9.6,9.2,9.6
					C182.7,80.5,186.5,76.3,186.5,70.9z"/>
        <path d="M214.7,56.7h5.8V74c0,7.5-4.4,11.9-11.5,11.9c-7.1,0-11.5-4.5-11.5-11.9V56.7h5.8v17.8c0,3.8,2.2,6.1,5.8,6.1
					c3.5,0,5.7-2.2,5.7-6.1V56.7z"/>
        <path d="M227.6,56.7h16.6v4.9h-10.8v6.6h9.2v4.9h-9.2v7.1h10.8v4.9h-16.6V56.7z"/>
        <path d="M0.1,97.7h16.6v4.9H5.9v6.6h9.2v4.9H5.9v12H0.1V97.7z"/>
        <path d="M21.8,97.7h8.7c6.3,0,10.1,3.2,10.1,8.5c0,3.4-1.7,6-4.6,7.4l8.9,12.6h-6.9l-7.6-11.5h-3v11.5h-5.8V97.7z M27.5,102.6
					v7.1h3.3c2.4,0,3.9-1.3,3.9-3.6c0-2.2-1.4-3.5-3.9-3.5H27.5z"/>
        <path d="M57,97.7h7.6l10.8,28.4h-6.1l-2.7-7.4H55l-2.7,7.4h-6.1L57,97.7z M64.6,113.8l-3.9-10.7l-3.9,10.7H64.6z"/>
        <path d="M79.7,97.7h7.4L99.8,118V97.7h5.8v28.4h-7.4l-12.7-20.4v20.4h-5.8V97.7z"/>
        <path d="M133.6,117.6l4.6,3.5c-2.2,3-5.6,5.1-9.8,5.6l-3.5,5.9h-5.1l3.6-6c-7.4-1.3-12.3-7.6-12.3-14.8c0-8.1,6.1-15,15.1-15
					c5.2,0,9.4,2.3,12,5.8l-4.6,3.5c-1.6-2.3-4.2-3.9-7.4-3.9c-5.4,0-9.2,4.2-9.2,9.6c0,5.4,3.8,9.6,9.2,9.6
					C129.5,121.5,132,119.9,133.6,117.6z"/>
        <path d="M150.2,97.7h7.6l10.8,28.4h-6.1l-2.7-7.4h-11.4l-2.7,7.4h-6.1L150.2,97.7z M157.9,113.8l-3.9-10.7l-3.9,10.7H157.9z"/>
        <path d="M172.9,97.7h5.8v28.4h-5.8V97.7z"/>
        <path d="M188.3,118.3c1.7,2.2,4,3.5,6.3,3.5c2.3,0,3.7-1.2,3.7-3.3c0-5.1-13-3.9-13-13.4c0-4.5,3.7-8.2,9.1-8.2
					c4.3,0,7.6,1.9,10,4.8l-4.2,3.8c-1.7-2.2-3.5-3.5-5.7-3.5c-2,0-3.3,1.3-3.3,3c0,5.1,13,3.9,13,13.5c-0.1,5.3-4.2,8.5-9.4,8.5
					c-4.8,0-8-1.7-10.6-4.8L188.3,118.3z"/>
        <path d="M210.1,97.7h16.6v4.9h-10.8v6.6h9.2v4.9h-9.2v7.1h10.8v4.9h-16.6V97.7z"/>
			</g>
      <g>
				<path d="M92.7,204.7c0.8,0,1.4,0.6,1.1,2.1l-3.6,0.8C90.8,205.9,91.8,204.7,92.7,204.7 M94.6,210.4h-0.7
					c-0.9,1.1-1.9,1.9-2.8,1.9c-1,0-1.5-0.6-1.5-1.9c0-0.5,0.1-1.1,0.2-1.6l5.8-1.9c1.1-2.7-0.2-3.8-1.8-3.8c-2.7,0-5.8,4.6-5.8,8.6
					c0,1.8,0.9,2.8,2.2,2.8C91.7,214.5,93.3,213,94.6,210.4 M93.5,202.1l4.1-3.8v-0.4h-2.2l-2.5,4.2H93.5z M81,204.7h1.9l-3,8.3
					c-0.3,0.7,0.1,1.4,0.8,1.4c1.7,0,4.5-1.7,5.5-4h-0.5c-0.8,0.8-2.3,1.9-3.5,2.1l2.8-7.8h2.9l0.4-1.2h-2.8l1.1-3h-1.1l-2,3
					l-2.4,0.3V204.7z M78.4,204.3c0.2-0.8-0.3-1.2-0.7-1.2c-1.7,0-3.6,1.5-4.4,3.6h0.5c0.5-0.8,1.5-1.6,2.3-1.8l-3.2,8.3
					c-0.3,0.8,0.3,1.2,0.7,1.2c1.6,0,3.4-1.5,4.2-3.6h-0.5c-0.5,0.8-1.5,1.6-2.3,1.8L78.4,204.3z M79,200.2c0.8,0,1.4-0.6,1.4-1.4
					c0-0.8-0.6-1.4-1.4-1.4c-0.8,0-1.4,0.6-1.4,1.4C77.6,199.6,78.3,200.2,79,200.2 M60.6,212.9c-0.4,0.9,0,1.5,0.9,1.5
					c0.6,0,0.8-0.1,1-0.8l2.2-5.9c1-1.3,3.1-2.6,4-2.6c0.6,0,0.5,0.5,0.1,1.3l-3.4,6.5c-0.3,0.6,0.1,1.4,0.8,1.4
					c1.7,0,3.6-1.5,4.4-3.6h-0.5c-0.5,0.8-1.5,1.6-2.3,1.8l2.9-5.9c0.4-0.8,0.6-1.5,0.6-2c0-1-0.5-1.6-1.5-1.6
					c-1.4,0-2.9,1.6-4.6,3.6v-1.5c0-1.1-0.4-2.1-1.4-2.1c-0.6,0-1.2,0.5-1.8,1.3v0.2c1.1-0.1,1.6,1.6,0.8,3.3L60.6,212.9z
					 M60.6,205.7c0.4-1.4,0.2-2.5-0.9-2.5c-1.2,0-1.5,0.9-2.8,3.6v-1.5c0-1.1-0.4-2.1-1.4-2.1c-1.2,0-2.2,1.8-3,3.6h0.5
					c0.6-0.8,1.1-1.3,1.5-1.3c0.5,0,0.8,0.8,0,2.5l-2.3,5c-0.4,0.9,0,1.5,0.9,1.5c0.6,0,0.8-0.1,1-0.8l2.2-5.9
					c0.6-0.8,1.2-1.4,1.9-2.2H60.6z M47.8,204.7c0.8,0,1.4,0.6,1.1,2.1l-3.6,0.8C45.9,205.9,47,204.7,47.8,204.7 M49.8,210.4h-0.7
					c-0.9,1.1-1.9,1.9-2.8,1.9c-1,0-1.5-0.6-1.5-1.9c0-0.5,0.1-1.1,0.2-1.6l5.8-1.9c1.1-2.7-0.2-3.8-1.8-3.8c-2.7,0-5.8,4.6-5.8,8.6
					c0,1.8,0.9,2.8,2.2,2.8C46.8,214.5,48.4,213,49.8,210.4 M36.2,204.7h1.9l-3,8.3c-0.3,0.7,0.1,1.4,0.8,1.4c1.7,0,4.5-1.7,5.5-4
					h-0.5c-0.8,0.8-2.3,1.9-3.5,2.1l2.8-7.8H43l0.4-1.2h-2.8l1.1-3h-1.1l-2,3l-2.4,0.3V204.7z M25.6,211.2c0-2.6,2.9-6,4.5-6
					c0.4,0,0.7,0,1,0.1l-1.7,4.4c-1,1.2-2.4,2.6-3.1,2.6C25.9,212.3,25.6,212,25.6,211.2 M34.4,202.6l-0.9-0.1l-1,1h-0.2
					c-4.8,0-8.9,5.3-8.9,9.2c0,1.1,0.7,1.7,1.7,1.7c1.2,0,2.4-1.8,3.8-3.6l-0.1,0.7c-0.2,1.9,0.4,3,1.4,3c1.2,0,2.2-1.8,3-3.6h-0.5
					c-0.6,0.8-1.1,1.3-1.5,1.3c-0.4,0-0.8-0.8,0-2.5L34.4,202.6z M24.3,205.7c0.4-1.4,0.2-2.5-0.9-2.5c-1.2,0-1.5,0.9-2.8,3.6v-1.5
					c0-1.1-0.4-2.1-1.4-2.1c-1.2,0-2.2,1.8-3,3.6h0.5c0.6-0.8,1.1-1.3,1.5-1.3c0.5,0,0.8,0.8,0,2.5l-2.3,5c-0.4,0.9,0,1.5,0.9,1.5
					c0.6,0,0.8-0.1,1-0.8l2.2-5.9c0.6-0.8,1.2-1.4,1.9-2.2H24.3z M8.3,214.1l0.2-0.6c-2.8-0.5-3.1-0.5-2-3.5l1.1-3.1h3.1
					c1.4,0,1.4,0.6,1.2,2.1h0.8l1.8-5h-0.8c-0.7,1.2-1.2,2.1-2.7,2.1h-3l1.6-4.4c0.5-1.4,0.8-1.7,2.7-1.7h1.3c1.9,0,2.2,0.5,2.2,2.5
					h0.8l0.6-3.4H5.6l-0.2,0.6c2.2,0.5,2.4,0.7,1.4,3.5l-2.5,6.8c-1,2.9-1.5,3.1-4,3.5l-0.2,0.6H8.3z"/>
        <path d="M64.7,178.6c0.8,0,1.4,0.6,1.1,2.1l-3.6,0.8C62.9,179.8,63.9,178.6,64.7,178.6 M66.7,184.4H66c-0.9,1.1-1.9,1.9-2.8,1.9
					c-1,0-1.5-0.6-1.5-1.9c0-0.5,0.1-1.1,0.2-1.6l5.8-1.9c1.1-2.7-0.2-3.8-1.8-3.8c-2.7,0-5.8,4.6-5.8,8.6c0,1.8,0.9,2.8,2.2,2.8
					C63.8,188.4,65.4,186.9,66.7,184.4 M65.6,176l4.1-3.8v-0.4h-2.2l-2.5,4.2H65.6z M53.1,178.7H55l-3,8.3c-0.3,0.7,0.1,1.4,0.8,1.4
					c1.7,0,4.5-1.7,5.5-4h-0.5c-0.8,0.8-2.3,1.9-3.5,2.1l2.8-7.8h2.9l0.4-1.2h-2.8l1.1-3h-1.1l-2,3l-2.4,0.3V178.7z M50.5,178.3
					c0.2-0.8-0.3-1.2-0.7-1.2c-1.7,0-3.6,1.5-4.4,3.6h0.5c0.5-0.8,1.5-1.6,2.3-1.8l-3.2,8.3c-0.3,0.8,0.3,1.2,0.7,1.2
					c1.6,0,3.4-1.5,4.2-3.6h-0.5c-0.5,0.8-1.5,1.6-2.3,1.8L50.5,178.3z M51.1,174.1c0.8,0,1.4-0.6,1.4-1.4c0-0.8-0.6-1.4-1.4-1.4
					c-0.8,0-1.4,0.6-1.4,1.4C49.7,173.5,50.3,174.1,51.1,174.1 M40,186.6l5.8-15.2l-0.2-0.2l-3.6,0.4v0.4l0.7,0.5
					c0.6,0.5,0.4,1-0.1,2.5L38,187c-0.3,0.6,0.1,1.4,0.8,1.4c1.7,0,3.4-1.5,4.2-3.6h-0.5C42,185.6,40.9,186.4,40,186.6 M28.9,185.1
					c0-2.6,2.9-6,4.5-6c0.4,0,0.7,0,1,0.1l-1.7,4.4c-1,1.2-2.4,2.6-3.1,2.6C29.2,186.3,28.9,185.9,28.9,185.1 M37.7,176.6l-0.9-0.1
					l-1,1h-0.2c-4.8,0-8.9,5.3-8.9,9.2c0,1.1,0.7,1.7,1.7,1.7c1.2,0,2.4-1.8,3.8-3.6l-0.1,0.7c-0.2,1.9,0.4,3,1.4,3
					c1.2,0,2.2-1.8,3-3.6h-0.5c-0.6,0.8-1.1,1.3-1.5,1.3c-0.4,0-0.8-0.8,0-2.5L37.7,176.6z M16.5,190.4c0-1.1,1.1-1.8,2.6-2.4
					c0.5,0.3,1.3,0.5,2.3,0.9c1.6,0.5,2.2,0.7,2.2,1.2c0,1-1.7,1.8-4.1,1.8C17.5,191.9,16.5,191.5,16.5,190.4 M20.8,183.7
					c-0.7,0-1-0.6-1-1.3c0-1.9,1-4.6,2.6-4.6c0.7,0,1,0.6,1,1.3C23.4,181,22.4,183.7,20.8,183.7 M25.3,189.4c0-1.3-1.2-1.8-3.1-2.4
					c-1.7-0.5-2.4-0.6-2.4-1.2c0-0.4,0.4-1,1.1-1.3c2.7-0.1,4.5-2.6,4.5-4.7c0-0.4-0.1-0.8-0.2-1.1h2.3l0.4-1.2h-3.7
					c-0.4-0.3-1-0.4-1.5-0.4c-2.9,0-4.8,2.5-4.8,4.6c0,1.6,1,2.5,2.2,2.8c-1.4,0.6-2.1,1.3-2.1,2.1c0,0.5,0.2,0.8,0.6,1.1
					c-3.1,0.9-4.4,2-4.4,3.4c0,1.4,1.9,2,4.2,2C22.1,193.2,25.3,191.1,25.3,189.4 M10.8,180.5c1.4,0,1.4,0.6,1.2,2.1h0.8l1.8-5h-0.8
					c-0.7,1.2-1.2,2.1-2.7,2.1H8l1.5-4.2c0.5-1.4,0.8-1.7,2.7-1.7h1.3c1.9,0,2.2,0.5,2.2,2.5h0.8l0.6-3.4H5.6l-0.2,0.6
					c2.2,0.5,2.4,0.7,1.4,3.5l-2.5,6.8c-1,2.9-1.5,3.1-4,3.5L0.1,188h12.8l2.3-3.6h-0.9c-1.5,1.4-3.3,2.7-5.9,2.7
					c-3.4,0-3.1-0.1-2-3.3l1.2-3.3H10.8z M12.4,171.7l4.1-2.8v-0.4H14l-2.3,3.2H12.4z"/>
        <path d="M63.4,152.5c0.8,0,1.4,0.6,1.1,2.1l-3.6,0.8C61.5,153.8,62.5,152.5,63.4,152.5 M65.4,158.3h-0.7
					c-0.9,1.1-1.9,1.9-2.8,1.9c-1,0-1.5-0.6-1.5-1.9c0-0.5,0.1-1.1,0.2-1.6l5.8-1.9c1.1-2.7-0.2-3.8-1.8-3.8c-2.7,0-5.8,4.6-5.8,8.6
					c0,1.8,0.9,2.8,2.2,2.8C62.4,162.3,64,160.8,65.4,158.3 M64.2,149.9l4.1-3.8v-0.4h-2.2l-2.5,4.2H64.2z M52.3,152.6h1.5l-3,8.3
					c-0.3,0.7,0.1,1.4,0.8,1.4c1.7,0,4.5-1.7,5.5-4h-0.5c-0.8,0.8-2.3,1.9-3.5,2.1l2.8-7.8h2.9l0.4-1.2h-2.8l1.1-3h-1.1l-2,3l-2,0.3
					V152.6z M50.8,153.5c0.4-1.4,0.2-2.5-0.9-2.5c-1.2,0-1.5,0.9-2.8,3.6v-1.5c0-1.1-0.4-2.1-1.4-2.1c-1.2,0-2.2,1.8-3,3.6h0.5
					c0.6-0.8,1.1-1.3,1.5-1.3c0.5,0,0.8,0.8,0,2.5l-2.3,5c-0.4,0.9,0,1.5,0.9,1.5c0.6,0,0.8-0.1,1-0.8l2.2-5.9
					c0.6-0.8,1.2-1.4,1.9-2.2H50.8z M38,152.5c0.8,0,1.4,0.6,1.1,2.1l-3.6,0.8C36.1,153.8,37.1,152.5,38,152.5 M39.9,158.3h-0.7
					c-0.9,1.1-1.9,1.9-2.8,1.9c-1,0-1.5-0.6-1.5-1.9c0-0.5,0.1-1.1,0.2-1.6l5.8-1.9c1.1-2.7-0.2-3.8-1.8-3.8c-2.7,0-5.8,4.6-5.8,8.6
					c0,1.8,0.9,2.8,2.2,2.8C37,162.3,38.6,160.8,39.9,158.3 M25.8,160.6c-0.6,0-1.4-0.5-1.4-1c0-0.1,0.3-0.8,0.6-1.6l0.9-2.5
					c1-1.2,2.5-2.5,3.4-2.5c0.5,0,0.9,0.3,0.9,1.1C30.2,156.5,28.1,160.6,25.8,160.6 M32.3,153.3c0-1.7-0.6-2.3-1.8-2.3
					c-1.5,0-2.8,1.5-4.2,3.4l3.5-9.2l-0.2-0.2l-3.6,0.4v0.4l0.7,0.5c0.6,0.5,0.4,1-0.1,2.5l-3.8,9.7c-0.3,0.7-0.6,1.5-0.6,1.8
					c0,1,1.4,1.9,2.6,1.9C27.6,162.3,32.3,157.2,32.3,153.3 M21,152.2c0.2-0.8-0.3-1.2-0.7-1.2c-1.7,0-3.6,1.5-4.4,3.6h0.5
					c0.5-0.8,1.5-1.6,2.3-1.8l-3.2,8.3c-0.3,0.8,0.3,1.2,0.7,1.2c1.6,0,3.4-1.5,4.2-3.6h-0.5c-0.5,0.8-1.5,1.6-2.3,1.8L21,152.2z
					 M21.6,148c0.8,0,1.4-0.6,1.4-1.4c0-0.8-0.6-1.4-1.4-1.4c-0.8,0-1.4,0.6-1.4,1.4C20.2,147.4,20.8,148,21.6,148 M13.2,146.7H5.6
					l-0.2,0.6c2.2,0.5,2.4,0.7,1.4,3.5l-2.5,6.8c-1,2.9-1.5,3.1-4,3.5l-0.2,0.6h11.6l2.5-4.5h-0.9c-1.4,1.6-3.1,3.5-5.7,3.5
					c-1.9,0-2.2-0.3-1.1-3.3l2.5-6.8c1-2.9,1.5-3.1,4-3.5L13.2,146.7z"/>
			</g>
      <g>
				<path class="st1" d="M42.9,33.3c0.4-0.4,0.8-0.8,1.2-1.3h0c0.8-0.9,1.5-1.7,2.4-2.4c0.3-0.2,0.5-0.5,0.8-0.6
					c0.1-0.1,0.1-0.2,0.1-0.3c-0.4,0.1-0.6,0.4-0.9,0.6c-0.1,0-0.1-0.1-0.1-0.1c0.3-0.2,0.5-0.4,0.8-0.6c0,0,0,0,0,0
					c-0.1,0-0.1-0.1-0.1-0.1c-0.9-0.1-1.6,0.5-2.3,1.1c-0.1,0.1-0.3-0.1-0.4-0.1c-1.1,0.4-1.9,1.3-2.9,1.7c0-0.1,0-0.1,0-0.1
					c-0.4,0.1-0.8,0.4-1.3,0.5c-0.6,0.1-1.2,0.1-1.8,0.1c-0.9,0.1-1.7,0.3-2.6,0.5c0,0-0.1,0-0.1,0c-0.5,0.1-0.9,0.3-1.3,0.5
					c0,0,0,0,0,0c0,0-0.1,0.1-0.1,0.1c-0.2,0.2-0.3,0.3-0.5,0.4c-0.4,0.2-0.8,0.6-1.2,0.9c0,0-0.1,0-0.1,0c-0.4,0.4-0.8,0.7-1.1,1.1
					c0,0-0.1,0-0.2,0c0,0,0,0,0,0c0,0,0,0,0-0.1c0.1-0.1,0.1-0.2,0.2-0.3c0.1-0.1,0.1-0.2,0.2-0.3c0.1-0.1,0.2-0.3,0.3-0.4
					c0,0,0-0.1,0-0.1c0,0-0.1,0-0.1,0c0.4-0.3,0.8-0.6,1.2-0.9c0,0,0,0,0,0c0,0-0.1,0-0.1-0.1c0-0.1,0.1-0.1,0.1-0.2c0,0,0,0,0-0.1
					c0,0,0,0-0.1-0.1c-0.1,0.1-0.2,0.1-0.3,0.2c-0.2,0.2-0.3,0.5-0.6,0.5c0,0-0.1,0-0.1,0c0,0-0.1,0-0.1,0c0,0,0,0,0,0c0,0,0,0,0,0
					c0,0,0,0,0,0c0,0,0,0,0-0.1c0,0,0,0,0-0.1c0,0,0,0,0,0c0,0,0-0.1,0.1-0.1c0,0,0,0,0-0.1c0-0.1,0.1-0.1,0.1-0.2c0,0,0-0.1,0-0.1
					c0,0,0.1-0.1,0.1-0.1c0-0.1,0-0.1-0.1-0.1c0.1-0.2,0.3-0.3,0.5-0.4h0c0.3-0.1,0.5-0.3,0.8-0.5c0,0,0.1-0.1,0.1-0.1
					c-0.4,0.1-0.8,0.3-1.1,0.6c0,0-0.1,0-0.1,0.1c0,0-0.1,0-0.2-0.1c0,0,0,0,0-0.1c0.1-0.1,0.3-0.2,0.4-0.4c0.1,0,0.1,0,0.1,0.1
					c2.3-1.8,5.4-1.4,8.1-2.3c0.2-0.1,0.4-0.3,0.6-0.4c0.4-0.1,0.6-0.5,1.1-0.7c0.6-0.4,1-0.9,1.2-1.6c0-0.1-0.1-0.1-0.1-0.1
					c-0.9,1-2,1.8-3.1,2.4c-1.5,0.8-3.1,0.6-4.7,0.9c0.1-0.1,0.2-0.1,0.4-0.1c0-0.2,0.1-0.3,0.3-0.4c0.1,0,0.1,0,0.2,0
					c0.1,0,0.1-0.1,0.1-0.1c0.1,0,0.4-0.1,0.3-0.1c-0.2-0.3-0.6,0.2-1,0c0.1-0.1,0.1-0.4,0.2-0.4c0.1,0,0.2,0,0.3,0
					c0-0.1,0.1-0.3,0.1-0.3c1.1-0.6,2.1-1.1,3.1-1.7c-0.2,0-0.4,0.2-0.6,0.1c0.1,0,0-0.2,0.1-0.2c0.8-0.2,1.4-0.6,2.2-0.9
					c-0.3,0-0.5,0.2-0.8,0c0.1-0.1,0.2-0.2,0.4-0.2c0-0.1,0-0.1,0-0.2c0-0.1,0.1-0.1,0.1-0.1c-0.1,0-0.1-0.1-0.1-0.1
					c0.1-0.1,0.3-0.1,0.4-0.2c-0.1,0-0.2,0-0.2-0.1c0.2-0.3,0.6-0.4,0.9-0.4c-0.1-0.1-0.3,0-0.3-0.1c0-0.1,0.1-0.1,0.1-0.1
					c-0.1,0-0.1,0-0.1,0c-0.1-0.1-0.1-0.2-0.1-0.3c0.4-0.5,0.4-1.1,0.6-1.7c-0.1,0-0.1,0-0.1-0.1c-0.7,0.8-1.9,1.1-2.9,1.4
					c-0.1,0-0.3,0-0.4,0c-0.4,0.1-0.9,0.1-1.2-0.1c-0.3-0.1-0.4-0.4-0.7-0.6c-0.6-0.4-1.1-0.6-1.8-0.9c-1.8-0.6-3.6-0.9-5.5-0.8
					c0.8-0.4,1.7-0.5,2.5-0.7c1.2-0.4,2.4-0.8,3.6-0.7c-0.2-0.1-0.5,0-0.7,0c-1-0.1-2,0.2-3.1,0.4c-0.7,0.1-1.4,0.4-2.1,0.6
					c-0.4,0.1-0.6,0.6-1.1,0.5c0,0,0-0.1,0-0.2c0.7-0.9,1.6-1.7,2.7-1.8c1.3-0.2,2.5,0,3.8,0.1c0.9,0.1,1.8,0.3,2.7,0.5
					c0.4,0,0.4,0.6,0.7,0.6c0.4,0.1,0.9,0,1.3,0.3c0-0.1-0.1-0.3,0-0.4c0.3-0.3,0.6,0.1,0.9-0.1c0.6-0.4-0.5-1-0.8-1.5
					c0-0.1,0.1-0.1,0.1-0.1c0.6,0.5,1,1.1,1.7,1.4c0.4,0.1,1.2,0.4,1.1-0.1c-0.4-0.8-1.1-1.4-1.6-2.1c0-0.1,0-0.2,0-0.3
					c-0.1,0-0.1-0.1-0.2-0.1c0-0.1,0-0.2,0-0.3c-0.3-0.1-0.2-0.4-0.4-0.6C41,15.9,41.2,15.4,41,15c-0.1-0.4-0.2-0.8-0.3-1.2
					c-0.2-1.2-0.5-2.3-0.6-3.4C40,9,40.9,7.9,41.5,6.7c0.5-0.9,1.1-1.7,2-2.3c0.2-0.9,0.8-1.6,1.4-2.3c0.6-0.7,1.5-1.1,2.2-1.4
					C48.1,0.3,49,0,49,0H0v37.8h34.7c1.4-1,2.7-1.4,4.6-2.4C40.2,35,42.2,34,42.9,33.3z M32,28.2c-0.1,0-0.4,0.1-0.4-0.1
					c0.1-0.4,0.6-0.4,0.9-0.5c0.1-0.1,0.4-0.2,0.5-0.1c0.1,0.2,0.4,0.1,0.5,0.3C33,28.2,32.5,28,32,28.2z M21,26.6
					c0,0-0.1-0.1-0.1-0.1c0.9-1.2,1.6-2.4,2.3-3.6c0.9-0.5,1.7-1.2,2.4-2c1.2-1.3,2.5-2.4,4-3.1c0.6-0.2,1.3-0.1,1.9,0.1
					c-0.2,0.3-0.6,0.2-0.9,0.4c-0.1,0-0.1,0-0.2-0.1c0.1-0.1,0.1-0.1,0.1-0.2c-0.7,0.8-1.7,1.1-2.3,2.1c-0.4,0.7-0.7,1.6-1.6,1.9
					c-0.3,0.1,0.1-0.2-0.1-0.1C24.3,23.1,22.8,24.7,21,26.6z M27,21.9c-0.1,0.1-0.2,0.2-0.2,0.3c-0.1,0.1-0.1,0.2-0.3,0.3
					c-0.1,0-0.1,0-0.1-0.1c0.1-0.3,0.3-0.6,0.6-0.6C27,21.8,27,21.9,27,21.9z M30.3,32.6c0,0.1-0.1,0.1-0.2,0.2
					c0.1,0,0.2,0.1,0.1,0.1c-0.2,0.2-0.3,0.3-0.5,0.4c0,0-0.1,0-0.1,0c-0.1,0.1-0.2,0.2-0.3,0.2c-0.1,0.1-0.5,0-0.4-0.1
					c0.2-0.2,0.3-0.3,0.5-0.5c0.1-0.1,0.2-0.2,0.3-0.3c0-0.1,0.1-0.1,0.2-0.2C30,32.5,30.3,32.5,30.3,32.6z M29,32
					C29,32,29,32,29,32c-0.3,0.2-0.6,0.4-0.8,0.6c-0.3,0.2-0.6,0.3-0.9,0.5c0,0,0,0,0,0c0,0-0.1-0.1-0.1,0c-0.3,0.1-0.5,0.3-0.7,0.5
					c0,0-0.1,0.1-0.1,0.1c0,0,0,0,0,0c0,0,0,0,0,0c0,0-0.1,0.1-0.1,0.1c0,0,0,0,0,0c0,0,0,0,0,0c-0.1,0.1-0.1,0.1-0.2,0.2
					c0,0,0,0.1-0.1,0.1c0,0-0.2,0-0.2-0.1c0,0,0,0,0,0c0,0-0.1,0-0.1,0.1c0,0-0.1,0-0.1,0.1c0,0,0,0,0,0c0,0,0,0-0.1,0
					c-0.1,0.1-0.2,0.1-0.3,0.2c-0.1,0.1-0.3,0.3-0.4,0.4c0,0,0,0,0,0c0,0,0,0,0,0c0,0,0,0,0,0c0,0,0,0,0,0c0,0,0,0,0,0
					c0,0,0,0,0,0.1c0,0,0,0,0,0c0,0,0,0-0.1,0c0,0,0,0,0,0c0,0,0,0,0,0c0,0,0-0.1-0.1-0.1c0,0,0,0,0,0c0,0,0,0,0,0
					c0.1-0.1,0.2-0.2,0.2-0.3c0,0,0,0,0,0c0,0,0-0.1,0.1-0.1c0-0.1,0.1-0.1,0.1-0.2c0,0,0,0,0-0.1c0.1-0.1,0.2-0.2,0.2-0.3
					c0,0,0,0,0,0c0,0,0,0,0,0c0-0.1,0.1-0.1,0.1-0.2c0,0,0.1-0.1,0.1-0.1c0,0,0,0,0,0c0,0,0,0,0,0c0,0,0,0,0,0c0-0.1,0-0.1,0.1-0.2
					c0,0,0,0,0,0c0,0,0,0,0,0c0,0,0-0.1,0-0.1l0,0c0,0,0,0,0,0c0,0,0-0.1,0-0.1c0,0,0,0,0,0c0.1-0.1,0.2-0.3,0.3-0.4c0,0,0,0,0,0
					c-0.1,0.1-0.2,0.2-0.3,0.2c-0.1,0.1-0.2,0-0.1-0.1c0.1,0,0.1-0.1,0.2-0.1c0,0,0,0,0,0c0.1-0.1,0.2-0.3,0.4-0.4
					c0.1-0.1,0.2-0.1,0.2-0.2c0,0,0,0,0,0c0-0.1,0.1-0.1,0.2-0.2c0,0,0,0,0,0c0.7-0.7,1.8-0.6,2.7-1.1c0.4-0.1,0.8,0.1,1.1,0
					c0.2,0,0.4,0,0.6,0.1C30.2,31.3,29.6,31.7,29,32z M30.5,27.1c-0.1-0.1,0.2,0,0.3-0.1c-0.2,0-0.4,0-0.6,0c-0.1,0-0.1-0.1-0.1-0.1
					c-0.4,0.1-0.8,0.2-1.1,0.3c-0.5,0.1-0.9,0.5-1.5,0.6c-0.8,0.3-1.4,0.9-2.3,1.2c-0.1,0-0.1-0.1-0.1-0.1c0.1-0.2,0.4-0.3,0.5-0.5
					c0-0.1,0-0.1-0.1-0.1c0.6-0.8,1.4-1.2,2.1-1.9c0-0.1,0-0.1,0-0.2c0.2-0.3,0.6-0.4,0.7-0.8c0.1-0.2,0.4-0.5,0.7-0.6
					c-0.1-0.1-0.2-0.1-0.2-0.2c-0.3,0-0.6,0.1-0.9-0.1c0.1-0.1,0.3-0.2,0.4-0.3c-0.1,0-0.1,0-0.2-0.1c-0.1-0.1,0.1-0.3,0.4-0.4
					c0.3-0.1,0.6-0.1,0.9-0.3c-0.5-0.1-1.1,0.1-1.6-0.1c0.4-0.9,0.9-1.7,1.8-2.1c0.1,0,0.2,0,0.2,0.1c0,0.4-0.2,0.6-0.6,0.7
					c0.6,0.1,1.1,0.1,1.7,0.4c-0.1,0.1-0.2,0.1-0.3,0.1c0.4,0.2,0.8,0.1,1.1,0.4c-0.2,0.2-0.4,0-0.6,0c2.2,0.6,4.6,1.1,6.4,2.6
					c-1.6,0.8-3.2,1.1-4.9,1.5c-0.2,0-0.4,0-0.6-0.1c0,0.1,0,0.2-0.1,0.2c-0.3,0-0.5,0-0.7,0.1C31.1,27.2,30.7,27.3,30.5,27.1z"/>
        <g>
					<path class="st2" d="M103.9,0H63.2c0,0,0.1,0,0.4,0.2c0.3,0.2,0.8,0.4,1,0.5c0.5,0.3,1,0.6,1.4,1.1c0.1,0.2,0.4,0.6,0.2,0.9
						c-0.1,0.4-0.2,0.9-0.6,1.1c-0.4,0.2-1,0.2-1.5,0.1c-0.3,0-0.6-0.1-0.9-0.1c1.1,0.4,2.1,0.9,2.8,1.9C66.2,5.9,66.4,6,66.7,6
						c0.1,0,0.1,0.1,0.1,0.2c-0.1,0.1-0.3,0.2-0.2,0.4c0.1,0,0.1,0,0.2,0c0.4-0.1,0.3-0.9,0.8-0.6c0.4,0.2,0.5,0.7,0.3,1.1
						c-0.3,0.3-0.6,0.5-0.9,0.7c-0.1,0.1-0.1,0.4,0,0.5c0.2,0.3,0.3,0.6,0.4,0.9c0.2,0.5,0.3,1.1,0.5,1.6c0.3,1.1,0.6,2.1,0.5,3.2
						c0,0.6-0.3,1.1-0.1,1.6c0.1,0.6,0.5,1,0.8,1.5c0.3,0.4,0.6,0.7,0.8,1.1c0.4,0.7,1.2,1.4,0.9,2.3c-0.2,0.5-1,0.4-1.5,0.7
						c-0.4,0.4-0.1,0.9,0.1,1.3c0.4,0.6-0.4,1.1-0.9,1.3c0.1,0.2,0.4,0.1,0.5,0.3c0.1,0.4,0.4,0.6,0.2,0.9c-0.3,0.4-1.1,0.6-0.7,1.3
						c0.3,0.5,0.1,1.1-0.1,1.6c-0.2,0.6-0.8,0.9-1.3,1.1c-0.4,0.1-0.9,0.1-1.4,0.1c-0.1-0.1-0.3-0.1-0.4-0.1
						c-1.2-0.1-2.4-0.5-3.6-0.5c-0.4,0.1-0.7,0.1-1,0.3c-0.3,0.2-0.6,0.5-0.9,0.8c0,0,0,0,0,0c-0.1,0.1-0.1,0.1-0.2,0.2
						c0,0-0.1,0.1-0.1,0.1c0,0,0,0-0.1,0.1c-0.2,0.3-0.4,0.5-0.6,0.8c0,0,0,0,0,0.1c0,0,0,0.1-0.1,0.1c-0.2,0.4-0.4,0.9-0.5,1.3
						c-0.5,1.6-0.3,3,0.1,3.4c0.1,0.1,2.4,0.8,3.9,1.5c0.7,0.3,1.3,0.6,1.7,0.9h39.9V0z"/>
				</g>
        <path class="st3" d="M65.7,13.8c0.3,0.1,0.7,0.1,0.7,0.2c-0.1,0.6-1,0.7-1.4,1.3h-0.2c-0.2,0.1-0.1,0.5-0.4,0.5
					c-0.2-0.1-0.4,0-0.6,0.1c0.3,0.3,0.6,0.5,1.1,0.4c0.1,0,0.2,0.1,0.2,0.3c0,0,0.1,0,0.1-0.1c0.1,0,0.1,0,0.1,0.1v0.3
					c-0.2,0.3-0.6,0.1-0.9,0.2c0.6,0.1,1.1,0.1,1.6,0c0.4-0.1,0-0.9,0.3-1.2c-0.1,0,0-0.2-0.1-0.2c0.1-0.1,0.3-0.4,0.4-0.4
					c0.1,0,0.4-0.1,0.4-0.2c0-0.1-0.3-0.2-0.2-0.4c0.4-0.3,0.8-0.7,0.6-1.1c-0.1-0.2-0.6-0.2-1-0.4c-0.4-0.1-0.8,0-1.2,0.1
					c-0.4,0-0.7,0.2-1.1,0.3c-0.5,0.1-0.9,0.4-1.4,0.7c0.5-0.2,1-0.3,1.6-0.4C64.9,13.8,65.2,13.7,65.7,13.8z"/>
			</g>
		</g>
	</g>
    <g>
		<g>
			<polygon class="st2" points="366.6,56.4 319.8,83.5 319.8,137.5 364.1,214 369.1,214 413.4,137.5 413.4,83.5 			"/>
      <polygon class="st0" points="380,102.8 397.7,102.8 397.7,92.5 366.6,74.5 335.4,92.5 335.4,128.5 366.6,146.4 397.7,128.5
				397.7,118.2 380,118.2 			"/>
      <polygon class="st1" points="380,118.2 380,102.8 366.6,95 353.2,102.8 353.2,118.2 366.6,125.9 			"/>
      <g>
				<path d="M469,76.6l4.5,3.5c-2.6,3.5-6.8,5.8-12,5.8c-9,0-15.1-6.9-15.1-15c0-8.1,6.1-15,15.1-15c5.2,0,9.4,2.3,12,5.8l-4.5,3.5
					c-1.6-2.3-4.2-3.9-7.4-3.9c-5.4,0-9.2,4.2-9.2,9.6c0,5.4,3.8,9.6,9.2,9.6C464.8,80.5,467.4,78.9,469,76.6z"/>
        <path d="M505.8,70.9c0,8.1-6.1,15-15.1,15c-9,0-15.1-6.9-15.1-15c0-8.1,6.1-15,15.1-15C499.7,55.8,505.8,62.8,505.8,70.9z
					 M499.9,70.9c0-5.4-3.8-9.6-9.1-9.6c-5.4,0-9.2,4.2-9.2,9.6c0,5.4,3.8,9.6,9.2,9.6C496.1,80.5,499.9,76.3,499.9,70.9z"/>
        <path d="M510.8,56.7h7.4L530.9,77V56.7h5.8v28.4h-7.4l-12.7-20.4v20.4h-5.8V56.7z"/>
        <path d="M545.8,77.3c1.7,2.2,4,3.5,6.3,3.5c2.3,0,3.7-1.2,3.7-3.3c0-5.1-13-3.9-13-13.4c0-4.5,3.7-8.2,9.1-8.2
					c4.3,0,7.6,1.9,10,4.8l-4.2,3.8c-1.7-2.2-3.5-3.5-5.7-3.5c-2,0-3.3,1.3-3.3,3c0,5.1,13,3.9,13,13.5c-0.1,5.3-4.2,8.5-9.4,8.5
					c-4.8,0-8-1.7-10.6-4.8L545.8,77.3z"/>
        <path d="M567.2,56.7h16.6v4.9h-10.8v6.6h9.2v4.9h-9.2v7.1h10.8v4.9h-16.6V56.7z"/>
        <path d="M589.9,56.7h5.8v28.4h-5.8V56.7z"/>
        <path d="M603.2,56.7h5.8v23.2h10.8v5.2h-16.6V56.7z"/>
        <path d="M624.3,56.7h5.8v23.2h10.8v5.2h-16.6V56.7z"/>
        <path d="M645.5,56.7h16.6v4.9h-10.8v6.6h9.2v4.9h-9.2v7.1h10.8v4.9h-16.6V56.7z"/>
        <path d="M668.3,56.7h8.7c6.3,0,10.1,3.2,10.1,8.5c0,3.4-1.7,6-4.5,7.4l8.9,12.6h-6.9L677,73.6h-3v11.5h-5.8V56.7z M674,61.6v7.1
					h3.2c2.4,0,3.9-1.3,3.9-3.6c0-2.2-1.4-3.5-3.9-3.5H674z"/>
			</g>
      <g>
				<path d="M447.1,97.7h7.4l12.7,20.4V97.7h5.8v28.4h-7.4l-12.7-20.4v20.4h-5.8V97.7z"/>
        <path d="M496.9,97.7h5.8V115c0,7.5-4.4,11.9-11.5,11.9c-7.1,0-11.5-4.5-11.5-11.9V97.7h5.8v17.8c0,3.8,2.2,6.1,5.8,6.1
					c3.5,0,5.7-2.2,5.7-6.1V97.7z"/>
        <path d="M509.4,97.7h7.3l6.9,11.7l6.9-11.7h7.3v28.4h-5.8v-20.2l-6.3,10.5h-4.1l-6.3-10.5v20.2h-5.8V97.7z"/>
        <path d="M545.1,97.7h16.6v4.9h-10.8v6.6h9.2v4.9h-9.2v7.1h10.8v4.9h-16.6V97.7z M550.7,95.2l4.6-5.5h5.9l-5.3,5.5H550.7z"/>
        <path d="M567.9,97.7h8.7c6.3,0,10.1,3.2,10.1,8.5c0,3.4-1.7,6-4.6,7.4l8.9,12.6h-6.9l-7.6-11.5h-3v11.5h-5.8V97.7z M573.6,102.6
					v7.1h3.2c2.4,0,3.9-1.3,3.9-3.6c0-2.2-1.4-3.5-3.9-3.5H573.6z"/>
        <path d="M594.2,97.7h5.8v28.4h-5.8V97.7z"/>
        <path d="M637.2,128.1c0.6,0,1.4-0.1,2-0.3v4.9c-0.9,0.4-1.7,0.5-3,0.5c-3.2,0-6.1-1.3-8.9-3.7l-3.4-3c-1.2,0.3-2.5,0.5-3.9,0.5
					c-9,0-15.1-6.9-15.1-15c0-8.1,6.1-15,15.1-15c8.9,0,15.1,6.9,15.1,15c0,4.8-2.1,9.1-5.6,11.9l1.7,1.6
					C633.4,127.4,635.4,128.1,637.2,128.1z M629.2,111.9c0-5.4-3.8-9.6-9.1-9.6c-5.4,0-9.2,4.2-9.2,9.6c0,5.4,3.8,9.6,9.2,9.6
					C625.4,121.5,629.2,117.3,629.2,111.9z"/>
        <path d="M656.6,97.7h5.8V115c0,7.5-4.4,11.9-11.5,11.9c-7.1,0-11.5-4.5-11.5-11.9V97.7h5.8v17.8c0,3.8,2.2,6.1,5.8,6.1
					c3.5,0,5.7-2.2,5.7-6.1V97.7z"/>
        <path d="M669,97.7h16.6v4.9h-10.8v6.6h9.2v4.9h-9.2v7.1h10.8v4.9H669V97.7z"/>
			</g>
      <g>
				<path class="st1" d="M447.3,143.5h16.6v4.9H453v6.6h9.2v4.9H453v12h-5.8V143.5z"/>
        <path class="st1" d="M467.3,151.4h5.2v2c1.3-1.4,3.1-2.4,5.4-2.4c0.7,0,1.3,0.1,1.8,0.3v5.4c-0.6-0.2-1.3-0.3-2.3-0.3
					c-2.5,0-4.1,1.4-4.9,2.6v12.8h-5.2V151.4z"/>
        <path class="st1" d="M481.9,166.5c0-3.1,2.4-5.5,6.8-6.3l6.2-1.1v-0.5c0-2.2-1.6-3.5-3.9-3.5c-2,0-3.7,0.9-4.6,2.4l-3.8-2.9
					c1.8-2.5,4.9-4.1,8.6-4.1c5.9,0,9,3.5,9,8v13.2h-5.2V170c-1.3,1.6-3.7,2.7-6.1,2.7C484.7,172.7,481.9,170.3,481.9,166.5z
					 M489.8,168.6c2.3,0,4-1.2,5-2.9v-2.8l-4.8,0.9c-2.2,0.4-3,1.3-3,2.6C487,167.6,488.1,168.6,489.8,168.6z"/>
        <path class="st1" d="M505.1,151.4h5.2v1.6c1.4-1.4,3.3-2.4,6.1-2.4c4.4,0,8,3,8,9.1v12.2H519v-12c0-2.7-1.5-4.4-4-4.4
					c-2.6,0-4,1.7-4.8,3v13.4h-5.2V151.4z"/>
        <path class="st1" d="M543.6,165.4l4.1,3.1c-1.9,2.5-4.9,4.1-8.7,4.1c-7.1,0-11.3-5.1-11.3-11c0-6,4.2-11.1,11.3-11.1
					c3.7,0,6.7,1.6,8.7,4.1l-4.1,3.1c-1-1.4-2.5-2.4-4.6-2.4c-3.4,0-5.8,2.6-5.8,6.2c0,3.6,2.5,6.2,5.9,6.2
					C541,167.8,542.6,166.9,543.6,165.4z"/>
        <path class="st1" d="M560.6,172.7c-7.3,0-11.4-5.1-11.4-11c0-6.1,3.8-11.1,10.5-11.1c5.7,0,9.4,3.8,9.4,9.2
					c0,1.1-0.2,2.2-0.3,2.9h-14.3c0.3,3.4,2.7,5.4,6.2,5.4c2.2,0,4.1-1,5.2-2.4l3.7,2.9C567.6,171.1,564.4,172.7,560.6,172.7z
					 M554.8,158.8h9.2c-0.1-2-1.6-3.9-4.3-3.9C557.2,154.9,555.5,156.1,554.8,158.8z"/>
			</g>
      <g>
				<path class="st2" d="M449,207c1.3,1.6,2.8,2.7,4.7,2.7c1.6,0,2.5-0.9,2.5-2.1c0-3.6-9.5-2.1-9.5-9.5c0-3.6,3-6.3,7.3-6.3
					c3.2,0,6,1.5,7.5,3.5l-3.5,3.1c-1.1-1.3-2.4-2.4-4-2.4c-1.5,0-2.4,0.7-2.4,1.9c0,3.5,9.5,2.1,9.5,9.3c-0.1,4.3-3.5,6.7-7.4,6.7
					c-3.7,0-6.3-1.5-8.2-3.8L449,207z"/>
        <path class="st2" d="M475,214c-7.3,0-11.4-5.1-11.4-11c0-6.1,3.8-11.1,10.5-11.1c5.7,0,9.4,3.8,9.4,9.2c0,1.1-0.2,2.2-0.3,2.9
					h-14.3c0.3,3.4,2.7,5.4,6.2,5.4c2.2,0,4.1-1,5.2-2.4l3.7,2.9C482,212.4,478.8,214,475,214z M469.2,200.1h9.2
					c-0.1-2-1.6-3.9-4.3-3.9C471.6,196.2,469.9,197.4,469.2,200.1z"/>
        <path class="st2" d="M487.7,192.7h5.2v2c1.3-1.4,3.1-2.4,5.4-2.4c0.7,0,1.3,0.1,1.8,0.3v5.4c-0.6-0.2-1.3-0.3-2.3-0.3
					c-2.5,0-4.1,1.4-4.9,2.6v12.8h-5.2V192.7z"/>
        <path class="st2" d="M506.4,192.7l5.3,14.6l5.3-14.6h5.6l-7.5,20.5h-6.8l-7.4-20.5H506.4z"/>
        <path class="st2" d="M524.1,185.7c0-1.8,1.5-3.4,3.4-3.4c1.8,0,3.3,1.5,3.3,3.4s-1.5,3.4-3.3,3.4
					C525.7,189.1,524.1,187.6,524.1,185.7z M524.9,192.7h5.2v20.5h-5.2V192.7z"/>
        <path class="st2" d="M549.7,206.7l4.1,3.1c-1.9,2.5-4.9,4.1-8.7,4.1c-7.1,0-11.3-5.1-11.3-11c0-6,4.2-11.1,11.3-11.1
					c3.7,0,6.7,1.6,8.7,4.1l-4.1,3.1c-1-1.4-2.5-2.4-4.6-2.4c-3.4,0-5.8,2.6-5.8,6.2c0,3.6,2.5,6.2,5.9,6.2
					C547.2,209.1,548.7,208.1,549.7,206.7z"/>
        <path class="st2" d="M566.7,214c-7.3,0-11.4-5.1-11.4-11c0-6.1,3.8-11.1,10.5-11.1c5.7,0,9.4,3.8,9.4,9.2c0,1.1-0.2,2.2-0.3,2.9
					h-14.3c0.3,3.4,2.7,5.4,6.2,5.4c2.2,0,4.1-1,5.2-2.4l3.7,2.9C573.7,212.4,570.6,214,566.7,214z M560.9,200.1h9.2
					c-0.1-2-1.6-3.9-4.3-3.9C563.3,196.2,561.6,197.4,560.9,200.1z"/>
        <path class="st2" d="M581,207c1.3,1.6,2.8,2.7,4.7,2.7c1.6,0,2.5-0.9,2.5-2.1c0-3.6-9.5-2.1-9.5-9.5c0-3.6,3-6.3,7.3-6.3
					c3.2,0,6,1.5,7.5,3.5l-3.5,3.1c-1.1-1.3-2.4-2.4-4-2.4c-1.5,0-2.4,0.7-2.4,1.9c0,3.5,9.5,2.1,9.5,9.3c-0.1,4.3-3.5,6.7-7.4,6.7
					c-3.7,0-6.3-1.5-8.2-3.8L581,207z"/>
			</g>
		</g>
	</g>
</g>
</svg>
