<?xml version="1.0" encoding="utf-8"?>
<!-- Generator: Adobe Illustrator 25.0.0, SVG Export Plug-In . SVG Version: 6.00 Build 0)  -->
<svg version="1.1" xmlns="http://www.w3.org/2000/svg" xmlns:xlink="http://www.w3.org/1999/xlink" x="0px" y="0px"
     viewBox="0 0 180.83 180.83" style="enable-background:new 0 0 180.83 180.83;" xml:space="preserve">
<style type="text/css">
	.st0{fill:#2FAC66;}
  .st1{fill:#E20E18;}
  .st2{fill:#FFFFFF;}
  .st3{fill:#253574;}
  .st4{fill:#FFE910;}
</style>
  <g id="Calque_1">
</g>
  <g id="Calque_2">
	<g>
		<path class="st0" d="M90.41,180.83C40.56,180.83,0,140.27,0,90.41C0,40.56,40.56,0,90.41,0c49.85,0,90.41,40.56,90.41,90.41
			C180.83,140.27,140.27,180.83,90.41,180.83z M90.41,4.97C43.3,4.97,4.97,43.3,4.97,90.41c0,47.11,38.33,85.44,85.44,85.44
			c47.11,0,85.44-38.33,85.44-85.44C175.86,43.3,137.53,4.97,90.41,4.97z"/>
    <path class="st0" d="M90.41,136.44c-25.38,0-46.03-20.65-46.03-46.03s20.65-46.03,46.03-46.03s46.03,20.65,46.03,46.03
			S115.79,136.44,90.41,136.44z M90.41,46.25c-24.35,0-44.16,19.81-44.16,44.16c0,24.35,19.81,44.16,44.16,44.16
			s44.16-19.81,44.16-44.16C134.58,66.06,114.76,46.25,90.41,46.25z"/>
    <g>

				<rect x="119.93" y="89.06" transform="matrix(0.5 -0.866 0.866 0.5 -16.7012 165.6026)" class="st1" width="30.27" height="16.4"/>

      <rect x="105.73" y="80.86" transform="matrix(0.5 -0.866 0.866 0.5 -16.7012 149.2027)" class="st2" width="30.27" height="16.4"/>
      <rect x="91.53" y="72.67" transform="matrix(0.5 -0.866 0.866 0.5 -16.7015 132.803)" class="st3" width="30.27" height="16.4"/>
      <path class="st3" d="M107.74,65.95l39.7,22.92l-13.46,23.31l-39.7-22.92L107.74,65.95 M107.12,63.66L91.99,89.87l42.61,24.6
				l15.13-26.21L107.12,63.66L107.12,63.66z"/>

      <rect x="63.35" y="87.37" transform="matrix(0.4999 -0.8661 0.8661 0.4999 -29.7457 125.0868)" class="st3" width="60.17" height="1.86"/>
      <rect x="35.36" y="73.82" transform="matrix(0.866 -0.5 0.5 0.866 -36.441 41.8988)" class="st3" width="49.2" height="30.27"/>
      <polygon class="st4" points="64.5,99.22 65.03,98.06 66.25,98.21 65.33,97.39 65.88,96.28 64.81,96.9 63.9,96.1 64.13,97.29
				63.05,97.91 64.26,98.01 			"/>
      <polygon class="st4" points="54.93,82.11 55.46,80.98 56.68,81.1 55.77,80.28 56.31,79.18 55.25,79.79 54.33,79.01 54.57,80.19
				53.5,80.8 54.69,80.89 			"/>
      <polygon class="st4" points="50.82,95.7 51.35,94.57 52.59,94.68 51.68,93.86 52.25,92.77 51.17,93.4 50.23,92.61 50.46,93.8
				49.38,94.43 50.57,94.49 			"/>
      <polygon class="st4" points="68.55,85.43 69.08,84.3 70.31,84.42 69.41,83.58 69.96,82.52 68.89,83.13 67.96,82.34 68.19,83.54
				67.12,84.16 68.3,84.22 			"/>
      <polygon class="st4" points="60.11,80.68 60.65,79.54 61.88,79.65 60.97,78.84 61.52,77.74 60.45,78.36 59.52,77.55 59.75,78.76
				58.67,79.39 59.87,79.47 			"/>
      <polygon class="st4" points="65.07,82.01 65.61,80.87 66.84,80.98 65.92,80.15 66.47,79.06 65.4,79.67 64.48,78.88 64.69,80.09
				63.62,80.7 64.83,80.78 			"/>
      <polygon class="st4" points="69.56,90.34 70.09,89.22 71.33,89.33 70.42,88.51 70.98,87.4 69.9,88.02 68.97,87.23 69.19,88.43
				68.12,89.05 69.32,89.15 			"/>
      <polygon class="st4" points="68.16,95.38 68.7,94.23 69.94,94.36 69.02,93.53 69.58,92.43 68.51,93.05 67.57,92.26 67.8,93.46
				66.73,94.08 67.93,94.16 			"/>
      <polygon class="st4" points="59.57,100.35 60.1,99.2 61.35,99.32 60.43,98.49 60.99,97.39 59.91,98.01 58.98,97.22 59.2,98.42
				58.12,99.04 59.32,99.13 			"/>
      <polygon class="st4" points="54.72,98.94 55.26,97.82 56.48,97.92 55.58,97.11 56.14,96 55.06,96.62 54.14,95.84 54.35,97.03
				53.28,97.65 54.49,97.74 			"/>
      <polygon class="st4" points="49.52,90.98 50.05,89.85 51.29,89.96 50.37,89.13 50.94,88.03 49.85,88.65 48.92,87.87 49.14,89.07
				48.07,89.68 49.27,89.77 			"/>
      <polygon class="st4" points="50.76,86.1 51.29,84.97 52.52,85.09 51.61,84.27 52.16,83.18 51.1,83.79 50.15,82.99 50.39,84.2
				49.31,84.82 50.51,84.91 			"/>
      <rect x="86.48" y="58.21" transform="matrix(0.866 -0.5 0.5 0.866 -32.4388 55.5357)" class="st3" width="1.86" height="60.17"/>
		</g>
    <g>
			<g>
				<path class="st0" d="M22.3,57.62l6.46-11.3l3.27,1.87l-4.21,7.37l4.6,2.63l3.58-6.26l3.27,1.87l-3.58,6.26l8.25,4.72l-2.25,3.93
					L22.3,57.62z"/>
        <path class="st0" d="M36.44,37.23l5.24-4.37c3.77-3.14,7.71-3.15,10.37,0.04c1.73,2.08,2.02,4.46,0.93,6.74l11.7,3.12
					l-4.09,3.41l-10.36-3.12l-1.79,1.49l5.78,6.94l-3.48,2.9L36.44,37.23z M42.33,37.23l3.69,4.44l1.96-1.63
					c1.47-1.23,1.61-2.8,0.45-4.19c-1.08-1.3-2.67-1.47-4.15-0.24L42.33,37.23z"/>
        <path class="st0" d="M68.56,18.18l5.74-1.5l13.81,19.48l-4.66,1.21l-3.53-5.08l-8.65,2.25l-0.6,6.16l-4.66,1.21L68.56,18.18z
					 M77.59,28.91l-5.08-7.35l-0.85,8.89L77.59,28.91z"/>
        <path class="st0" d="M95.8,14.52l5.69,1.18l6.49,17.84l3.29-15.81l4.44,0.92l-4.55,21.87l-5.69-1.18L98.98,21.5l-3.29,15.81
					l-4.44-0.92L95.8,14.52z"/>
        <path class="st0" d="M133.09,47.97l1.11,4.37c-3.32,0.92-7.03,0.27-10.21-2.24c-5.54-4.36-5.97-11.6-2.02-16.61
					c3.95-5.01,11.08-6.29,16.62-1.93c3.18,2.5,4.66,5.98,4.59,9.38l-4.52-0.03c0.12-2.22-0.69-4.44-2.69-6.02
					c-3.31-2.6-7.69-1.88-10.34,1.48c-2.64,3.36-2.32,7.79,0.99,10.4C128.62,48.34,130.96,48.61,133.09,47.97z"/>
        <path class="st0" d="M153.16,48.09l6.3,11.39l-3.29,1.82l-4.11-7.42l-4.63,2.56l3.49,6.31l-3.29,1.82l-3.49-6.31l-5.02,2.78
					l4.11,7.43l-3.29,1.82l-6.3-11.39L153.16,48.09z"/>
			</g>
		</g>
    <g>
			<g>
				<path class="st0" d="M38.7,107.33l3.04,6.11c2.19,4.4,1.28,8.23-2.43,10.08c-2.43,1.21-4.81,0.93-6.77-0.66l-5.74,10.66
					l-2.37-4.77l5.43-9.36l-1.04-2.08l-8.08,4.02l-2.02-4.06L38.7,107.33z M37.35,113.07l-5.17,2.57l1.14,2.28
					c0.85,1.71,2.35,2.21,3.98,1.41c1.51-0.75,2.04-2.26,1.19-3.98L37.35,113.07z"/>
        <path class="st0" d="M48.69,124.99l9.36,9.04l-2.61,2.71l-6.1-5.89l-3.68,3.81l5.19,5.01l-2.61,2.71l-5.19-5l-3.99,4.13
					l6.1,5.89l-2.61,2.71l-9.36-9.04L48.69,124.99z"/>
        <path class="st0" d="M61.97,136.45l4.07,1.98l-7.97,16.38l7.63,3.71l-1.8,3.7l-11.7-5.69L61.97,136.45z"/>
        <path class="st0" d="M83.09,143.84l5.91,0.49l6.58,22.95l-4.8-0.4l-1.65-5.96l-8.9-0.74l-2.61,5.61l-4.8-0.4L83.09,143.84z
					 M88.05,156.96l-2.36-8.61l-3.74,8.11L88.05,156.96z"/>
        <path class="st0" d="M99.31,144.5l5.45-2l14.93,11.71l-5.56-15.15l4.25-1.56l7.69,20.96l-5.45,2l-14.93-11.72l5.56,15.15
					l-4.25,1.56L99.31,144.5z"/>
        <path class="st0" d="M144.62,134.55l4.47-0.58c0.51,3.41-0.58,7.01-3.45,9.87c-4.99,4.97-12.23,4.53-16.73,0.01
					c-4.5-4.52-4.91-11.76,0.08-16.73c2.87-2.86,6.5-3.91,9.86-3.43l-0.57,4.49c-2.19-0.39-4.49,0.15-6.3,1.95
					c-2.98,2.97-2.79,7.41,0.23,10.44s7.46,3.24,10.44,0.27C144.45,139.03,145,136.73,144.62,134.55z"/>
        <path class="st0" d="M137.01,118.06l5.35-11.87l3.43,1.54l-3.49,7.74l4.83,2.18l2.96-6.57l3.43,1.54l-2.96,6.57l5.23,2.36
					l3.49-7.74l3.43,1.55l-5.35,11.86L137.01,118.06z"/>
			</g>
		</g>
	</g>
</g>
</svg>
