<svg width="28" height="28" viewBox="0 0 28 28" xmlns="http://www.w3.org/2000/svg" xmlns:xlink="http://www.w3.org/1999/xlink"><defs><path id="a" d="M0 0h28v28H0z"/></defs><g fill="none" fill-rule="evenodd"><mask id="b" fill="#fff"><use xlink:href="#a"/></mask><g/><path d="M28 14c0 7.732-6.267 14-14 14-7.732 0-14-6.268-14-14S6.268-.001 14-.001c7.733 0 14 6.27 14 14" fill-opacity=".55" fill="#000" mask="url(#b)"/><path d="M23 14a9 9 0 0 1-9 9 9 9 0 0 1-9-9 9 9 0 0 1 9-9 9 9 0 0 1 9 9" fill="#0F0" mask="url(#b)"/></g></svg>
